<svg width="25" height="20" viewBox="0 0 25 20" fill="none" xmlns="http://www.w3.org/2000/svg">
<path d="M11.4693 0.146635L0.243155 9.47273C-0.0810515 9.73962 -0.0810515 10.2546 0.243155 10.5215L11.4693 19.8513C11.8872 20.1972 12.5005 19.8852 12.5005 19.3251V0.669137C12.5005 0.112804 11.8872 -0.202953 11.4693 0.146635ZM23.9688 0.146635L12.7427 9.47273C12.6658 9.53888 12.6045 9.62003 12.5627 9.71077C12.5209 9.8015 12.4997 9.89976 12.5005 9.99899C12.5005 10.1945 12.5825 10.3899 12.7427 10.5253L23.9688 19.8551C24.3867 20.2009 25 19.8889 25 19.3288V0.669137C25 0.112804 24.3867 -0.202953 23.9688 0.146635Z" fill="black"/>
</svg>
