<svg width="21" height="22" viewBox="0 0 21 22" fill="none" xmlns="http://www.w3.org/2000/svg">
<path d="M16.134 10C16.715 15.375 19 17 19 17H1C1 17 4 14.867 4 7.4C4 5.703 4.632 4.075 5.757 2.875C6.882 1.675 8.41 1 10 1C10.338 1 10.6713 1.03 11 1.09M11.73 20C11.5542 20.3031 11.3018 20.5547 10.9982 20.7295C10.6946 20.9044 10.3504 20.9965 10 20.9965C9.64962 20.9965 9.30539 20.9044 9.00177 20.7295C8.69816 20.5547 8.44581 20.3031 8.27 20M17 7C17.7956 7 18.5587 6.68393 19.1213 6.12132C19.6839 5.55871 20 4.79565 20 4C20 3.20435 19.6839 2.44129 19.1213 1.87868C18.5587 1.31607 17.7956 1 17 1C16.2044 1 15.4413 1.31607 14.8787 1.87868C14.3161 2.44129 14 3.20435 14 4C14 4.79565 14.3161 5.55871 14.8787 6.12132C15.4413 6.68393 16.2044 7 17 7Z" stroke="black" stroke-width="1.5" stroke-linecap="round" stroke-linejoin="round"/>
</svg>
