<svg width="13" height="16" viewBox="0 0 13 16" fill="none" xmlns="http://www.w3.org/2000/svg">
<path d="M11 8.667L0.777 15.482C0.701705 15.5321 0.61423 15.5608 0.523891 15.5652C0.433553 15.5695 0.343733 15.5492 0.263999 15.5065C0.184266 15.4639 0.117604 15.4003 0.0711141 15.3228C0.024624 15.2452 4.67204e-05 15.1564 0 15.066V0.934C4.67204e-05 0.843558 0.024624 0.754822 0.0711141 0.677243C0.117604 0.599664 0.184266 0.536148 0.263999 0.493459C0.343733 0.45077 0.433553 0.430508 0.523891 0.434829C0.61423 0.439151 0.701705 0.467895 0.777 0.518L11 7.333V1C11 0.734784 11.1054 0.48043 11.2929 0.292893C11.4804 0.105357 11.7348 0 12 0C12.2652 0 12.5196 0.105357 12.7071 0.292893C12.8946 0.48043 13 0.734784 13 1V15C13 15.2652 12.8946 15.5196 12.7071 15.7071C12.5196 15.8946 12.2652 16 12 16C11.7348 16 11.4804 15.8946 11.2929 15.7071C11.1054 15.5196 11 15.2652 11 15V8.667Z" fill="black"/>
</svg>
